<?xml version="1.0" encoding="UTF-8" standalone="no"?>
<svg xmlns:rdf="http://www.w3.org/1999/02/22-rdf-syntax-ns#" xmlns="http://www.w3.org/2000/svg" height="1413.8" viewBox="0 0 932.8125 1413.75" width="932.81" version="1.1" xmlns:cc="http://creativecommons.org/ns#" xmlns:dc="http://purl.org/dc/elements/1.1/">
<path d="m0.625 1413.1c-1.3811-1.3812-0.45213-4.2049 2.8906-8.7864 1.9336-2.6501 7.3826-10.038 12.109-16.418 4.7263-6.3801 11.648-16.151 15.381-21.713 8.456-12.599 24.442-34.968 29.001-40.582 1.8845-2.3203 7.0038-9.4922 11.376-15.938 8.9317-13.166 15.148-21.978 26.124-37.031 8.3433-11.443 12.725-17.603 32.007-45 7.258-10.312 16.646-23.391 20.861-29.062 4.2157-5.6719 8.2817-11.227 9.0356-12.344 8.5428-12.662 17.701-25.773 22.577-32.32 3.2895-4.417 7.8793-10.704 10.2-13.971 2.3203-3.2671 5.6953-7.9475 7.5-10.401 1.8047-2.4536 6.5661-9.2288 10.581-15.056 4.0148-5.8274 9.1828-13.279 11.484-16.56 3.4127-4.864 4.1847-6.7234 4.1847-10.078 0-3.3228 0.32158-4.1137 1.6726-4.1137 1.9241 0 11.452 9.2778 11.452 11.151 0 1.259-7.2539 12.77-24.876 39.474-5.274 7.9922-12.947 20.016-17.052 26.719-4.1045 6.7031-12.065 19.203-17.69 27.778-12.801 19.514-22.263 34.228-29.735 46.237-3.1922 5.1304-12.765 19.959-21.273 32.952-8.5078 12.993-18.633 28.826-22.5 35.183-3.8672 6.3578-13.359 21.171-21.094 32.919-7.7344 11.748-16.631 25.468-19.769 30.489-17.629 28.202-20.113 32.425-19.424 33.026 0.71626 0.6246 10.547 4.5293 20.149 8.0033 4.5362 1.6412 6.415 3.9406 4.3108 5.2757-1.4338 0.9099-68.581 1.0717-69.485 0.1675zm768.57-0.3536c-0.9963-1.612 1.2856-3.5311 9.5651-8.0443 12.435-6.7783 18.94-12.11 21.511-17.633 1.2166-2.6127 2.2088-6.2268 2.205-8.0315-0.0244-11.584-13.894-44.357-36.304-85.781-3.3473-6.1875-9.2732-17.367-13.169-24.844-3.8955-7.4766-8.063-15.167-9.2612-17.091-1.1982-1.9234-2.1786-3.6968-2.1786-3.941 0-0.2441-3.6577-6.6861-8.1282-14.316-4.4705-7.6293-10.216-17.458-12.767-21.84-7.9391-13.637-38.856-74.229-44.327-86.875-7.517-17.374-11.473-28.437-15.363-42.969-3.7723-14.091-6.2697-28.135-7.5018-42.188-0.4521-5.1563-1.1188-10.934-1.4817-12.84-0.84466-4.4363 0.10874-8.254 2.0613-8.254 0.8354 0 10.796 6.2227 22.136 13.828 22.449 15.057 27.796 18.608 63.452 42.142 13.124 8.6618 25.213 16.917 26.864 18.346 2.1389 1.8499 3.3346 4.0079 4.1556 7.5 2.1233 9.0315 7.7686 23.756 14.28 37.247 4.6463 9.626 17.569 29.536 31.336 48.281 6.2926 8.5676 12.068 16.54 23.092 31.875 2.224 3.0937 8.473 11.742 13.887 19.219 9.2968 12.839 17.206 25.229 24.239 37.969 1.7078 3.0937 6.7808 11.531 11.273 18.75 9.6513 15.508 19.883 32.586 28.084 46.875 3.2553 5.6718 8.2085 14.216 11.007 18.986 2.7985 4.7707 4.9464 9.4114 4.773 10.312-0.28987 1.5069-2.4596 1.6586-27.009 1.8879-14.682 0.1372-27.284 0.023-28.006-0.2539-1.067-0.4095-0.9985-0.8491 0.36765-2.3587 0.92354-1.0206 2.1718-1.8555 2.774-1.8555 0.60215 0 3.7077-1.2657 6.9012-2.8127 11.211-5.4306 11.462-12.521 1.0877-30.74-5.8768-10.321-24.431-39.737-40.504-64.217-3.4574-5.2658-7.865-12.295-9.7947-15.621-4.6013-7.9298-29.075-40.397-38.58-51.18-7.5281-8.5406-17.149-16.82-18.848-16.222-0.50491 0.1779 2.3281 4.6234 6.2956 9.879 15.338 20.317 24.924 32.73 27.099 35.089 1.8152 1.969 2.2071 3.2736 1.9714 6.5625l-0.29418 4.1051-6.0897-0.3247c-8.1154-0.4327-9.379-1.2083-9.379-5.7566 0-3.0788-1.049-5.0787-6.4984-12.389-3.5741-4.7946-7.6874-10.367-9.1406-12.383-14.968-20.768-20.736-27.496-25.848-30.149-5.415-2.8108-8.2834-2.3363-11.519 1.9052-2.8966 3.7976-3.0774 10.141-0.49059 17.218 1.6842 4.6078 12.643 25.581 22.232 42.547 2.2475 3.9767 7.9402 14.946 12.65 24.375 4.7103 9.4297 11.185 21.785 14.388 27.457 10.075 17.842 25.28 46.295 33.117 61.975 4.1512 8.3048 11.356 21.892 16.011 30.194 10.436 18.613 13.223 24.078 13.223 25.926 0 1.2714-5.1382 1.4374-44.476 1.4374-29.884 0-44.674-0.3211-45.081-0.9786zm-649.79-2.2988c-1.3468-3.5099 2.1755-19.499 8.2621-37.504 8.9995-26.622 27.281-60.655 46.583-86.719 17.234-23.272 41.824-48.877 67.627-70.418 27.615-23.054 72.763-49.242 99.375-57.64 8.5523-2.699 9.9661-3.1108 15.938-4.6416 17.155-4.398 28.994-5.3904 64.688-5.4224 33.811-0.03 46.381 0.8655 67.5 4.8095 26.92 5.0275 52.149 15.182 76.602 30.832 22.125 14.16 28.495 19.378 48.305 39.57 19.166 19.536 27.607 29.733 38.107 46.036 3.1551 4.8984 7.0321 10.805 8.6155 13.125 11.023 16.153 27.255 46.134 33.5 61.875 1.5342 3.8672 5.9271 14.414 9.762 23.438 3.8349 9.0234 7.4304 17.672 7.9899 19.219 0.55956 1.5468 2.5955 6.9098 4.5243 11.918 2.8837 7.4871 3.2973 9.3577 2.3277 10.526-0.97969 1.1804-3.9419 1.397-17.507 1.2801-10.421-0.09-16.599-0.5063-17.077-1.1511-0.67641-0.912-1.6361-3.9789-3.8363-12.26-2.5771-9.6996-8.9299-29.589-13.326-41.719-12.366-34.126-23.399-55.024-46.713-88.486-9.8976-14.206-29.393-36.668-33.933-39.099-1.2583-0.6735-4.7646-0.5173-11.831 0.5268-21.02 3.1062-35.905 8.5238-52.23 19.009-19.358 12.434-33.489 30.23-44.48 56.018-6.2482 14.66-9.0959 38.047-7.0837 58.177l0.66119 6.6142-10.747 1.1202c-14.016 1.461-17.096 1.4132-18.508-0.2875-1.5365-1.8513-0.88154-7.8222 2.6734-24.374 7.4235-34.563 15.215-54.042 31.874-79.688 6.1524-9.4711 22.389-25.235 31.676-30.752 7.8124-4.6419 22.103-11.137 27.059-12.298 9.0062-2.1102 13.502-2.6467 25.547-3.0485 9.4112-0.314 13.342-0.7715 13.301-1.5484-0.12439-2.3397-15.634-14.467-31.255-24.44-12.926-8.2523-45.996-22.985-60.561-26.981-37.043-10.162-72.946-11.354-108.28-3.5957-2.5781 0.5661-5.9531 1.2571-7.5 1.5356-8.8182 1.5875-29.26 8.4921-45.853 15.488-42.442 17.894-76.618 44.233-109.19 84.15-18.017 22.081-41.843 70.205-48.082 97.115-0.4782 2.0625-1.2985 5.4375-1.8228 7.5-2.2831 8.9805-4.3666 21.478-5.4292 32.568-0.43178 4.506-1.3141 8.8302-1.9607 9.6093-1.7387 2.0951-34.49 2.1082-35.293 0.014zm204.39-41.2c-0.33764-0.8798-0.10003-3.3613 0.52802-5.5144 1.5777-5.4087 4.3278-16.379 5.2118-20.79 0.31001-1.5469 0.98223-4.711 1.4938-7.0313 5.758-26.115 8.2572-54.468 6.0739-68.906-1.0636-7.0335-5.1339-16.894-8.6871-21.045-6.0869-7.1111-18.41-10.477-27.882-7.6164-13.619 4.1132-18.438 5.9499-28.674 10.929-10.279 5-34.55 18.988-44.032 25.376-4.1152 2.7728-6.5792 2.8603-6.5792 0.2335 0-3.6027 22.781-25.212 36.094-34.238 9.6324-6.5305 24.031-14.116 32.344-17.04 13.348-4.6949 14.311-4.881 25.281-4.881 10.246 0 10.859 0.1166 17.567 3.343 15.74 7.5707 25.95 24.043 29.305 47.282 1.3333 9.2352 0.78014 48.696-0.841 60-0.5546 3.8672-1.26 9.7972-1.5677 13.178l-0.55932 6.1465 5.8272 3.1059c5.2011 2.7721 22.041 9.2379 29.52 11.334 7.3147 2.0503 8.4375 2.5543 8.4375 3.7873 0 2.3003-6.4406 2.8089-42.873 3.3858-32.785 0.5192-35.417 0.4432-35.986-1.0396zm-103.49-154.6c0-2.2998 4.5912-10.84 9.6027-17.861 1.4728-2.0635 4.1208-5.8612 5.8843-8.4393 4.5149-6.6004 19.302-25.742 27.638-35.777 11.731-14.122 25.449-31.846 31.681-40.933 6.4559-9.4135 16.033-27.825 18.08-34.76 1.4752-4.9961 4.457-8.3791 6.3528-7.2074 0.97781 0.6043 1.045 1.9391 0.31615 6.285-2.1167 12.622-6.866 24.537-17.333 43.486-13.22 23.933-24.098 48.864-24.098 55.227 0 4.0646-2.3509 6.2512-10.063 9.36-7.8594 3.1681-15.083 7.6317-22.388 13.833-23.592 20.03-25.674 21.391-25.674 16.786zm391.07-22.1c-11.003-8.565-20.048-14.082-26.845-16.375-2.5781-0.8696-5.4884-2.2889-6.4673-3.1539-2.068-1.8275-12.741-23.31-12.747-25.658-0.003-0.8718-0.37589-1.8149-0.82995-2.0955s-1.1058-1.6766-1.4482-3.1022c-0.63017-2.6233-1.7223-7.0111-3.4453-13.842-1.2131-4.8093-2.5573-10.95-3.694-16.875-0.4946-2.5782-1.3405-6.7969-1.8799-9.375-1.5898-7.5999-2.6509-12.823-3.6182-17.812-0.91825-4.736-2.1633-10.015-3.9802-16.875-0.54622-2.0625-1.0543-5.4375-1.129-7.5-0.11218-3.0962 0.17209-3.75 1.6305-3.75 1.3526 0 2.4141 1.757 4.5312 7.5 1.5207 4.125 3.6234 9.8203 4.6728 12.656 5.5304 14.946 11.261 27.411 17.886 38.906 10.534 18.277 14.768 25.47 22.074 37.5 4.3842 7.2187 9.6845 16.078 11.779 19.688 2.0941 3.6093 6.4578 10.57 9.6972 15.469 5.6076 8.4796 6.6091 11.163 4.4361 11.886-0.53355 0.1776-5.3137-3.0582-10.623-7.1908zm-302.94-33.114c0-1.7553 3.4534-4.7576 17.812-15.486 15.957-11.922 19.385-14.836 18.496-15.725-0.82188-0.8219-6.709-1.7519-19.794-3.1271-9.5248-1.0009-11.827-1.9166-11.827-4.7042 0-1.4137 2.0433-1.747 17.109-2.7902 28.889-2.0005 38.407-2.7137 45.284-3.3935 5.5598-0.5495 6.867-0.399 8.2117 0.9457 0.87962 0.8797 1.3645 1.9793 1.0776 2.4436-0.64746 1.0476-23.748 14.775-36.995 21.985-11.072 6.0257-22.245 12.559-30.189 17.654-5.4643 3.5043-9.1857 4.3946-9.1857 2.1974zm210.94-21.238c-4.3828-1.47-18.094-5.9314-30.469-9.9141-38.125-12.27-41.176-13.331-41.551-14.457-0.62366-1.871 2.7414-3.5072 9.6195-4.6773 3.6404-0.6193 8.3064-1.4813 10.369-1.9157 2.0625-0.4342 6.0703-1.2316 8.9062-1.7717 2.8359-0.5402 6.4219-1.2333 7.9688-1.5403 7.186-1.426 12.567-2.4597 16.875-3.242 5.0364-0.9143 11.517-2.2948 18.281-3.894 6.5294-1.5437 13.594-1.5343 13.594 0.018 0 1.1994-2.6307 2.2022-13.125 5.0032-2.0625 0.5505-7.3359 2.1467-11.719 3.547-7.1808 2.2944-11.153 3.4664-17.578 5.1867-3.0694 0.8218-2.5925 2.1837 1.4062 4.0156 1.9336 0.8857 4.5703 2.2859 5.8594 3.1113 4.8715 3.1197 25.137 14.874 25.644 14.874 1.3805 0 9.0436 5.2714 9.0436 6.221 0 1.1157-2.1446 2.2574-4.061 2.1621-0.60236-0.03-4.6811-1.2573-9.064-2.7274zm246.56-68.704c-1.8047-1.0756-6.4453-4.1197-10.312-6.7647-3.8672-2.645-11.883-7.703-17.812-11.24-12.629-7.5329-15.007-9.0271-36.094-22.677-16.148-10.452-22.108-14.218-35.625-22.506-10.777-6.6084-18.347-11.34-27.339-17.085-8.6428-5.5232-6.8573-5.2708-20.474-2.8934-12.745 2.2252-26 4.4402-33.75 5.6395-3.0938 0.47887-7.9453 1.2968-10.781 1.8176-2.8359 0.52088-7.8984 1.3792-11.25 1.9074-3.3516 0.52828-10.945 1.7835-16.875 2.7894-9.7528 1.6546-27.793 4.4942-42.656 6.7143-3.0938 0.4622-8.2617 1.2496-11.484 1.7498-3.2226 0.5004-8.4961 1.319-11.719 1.8194-12.121 1.8817-22.436 3.5974-33.984 5.6528-7.3094 1.301-15.075 2.6039-21.797 3.6572-2.9648 0.4646-8.1328 1.3475-11.484 1.9618-5.8369 1.0701-10.255 1.8397-21.562 3.756-2.8359 0.4807-7.4766 1.2988-10.312 1.8181-2.8359 0.5194-6.8438 1.1757-8.9062 1.4587-2.0625 0.2829-5.8594 0.9076-8.4375 1.3883s-7.4297 1.3345-10.781 1.8974c-3.3516 0.5629-8.2031 1.4066-10.781 1.875-5.2315 0.9503-14.238 2.4833-22.031 3.75-5.3875 0.8756-13.133 2.174-22.266 3.7324-2.9648 0.5059-12.562 2.0011-21.328 3.3226-8.7656 1.3215-17.463 2.806-19.328 3.2988-1.8645 0.4929-4.1848 0.8839-5.1562 0.8688-0.97143-0.015-6.9464 0.9258-13.278 2.0907l-11.511 2.118 0.58072 2.6441c0.31941 1.4542 1.5972 5.1456 2.8396 8.2032 2.9689 7.3064 2.9295 8.6128-0.24844 8.2368-2.4689-0.2921-4.906-2.9074-15.278-16.396-3.5622-4.6325-3.7565-5.2411-4.3448-13.611-0.70473-10.026-0.48397-10.434 6.1928-11.468 2.3203-0.3591 10.758-1.6896 18.75-2.9566 7.9922-1.2671 17.062-2.6975 20.156-3.1787 3.0938-0.4813 9.8438-1.5501 15-2.3751 5.1562-0.8251 12.328-1.9185 15.938-2.4299 9.9568-1.4107 21.606-3.238 35.625-5.5881 3.0938-0.5187 8.1562-1.3398 11.25-1.8248 6.6892-1.0486 14.935-2.4123 22.031-3.6435 2.8359-0.492 8.1094-1.3811 11.719-1.9759 11.663-1.9216 17.706-2.9358 22.969-3.8556 7.6596-1.3386 15.27-2.6079 21.328-3.5572 5.0847-0.79678 10.011-1.6381 23.203-3.9628 7.2305-1.2741 14.493-2.5076 21.562-3.6623 3.0938-0.50532 7.9453-1.304 10.781-1.7748 2.8359-0.47081 7.8984-1.293 11.25-1.8271 3.3516-0.53409 8.8359-1.4255 12.188-1.9808 3.3516-0.55547 10.312-1.6251 15.469-2.3769 5.1562-0.75188 11.273-1.7942 13.594-2.3162 3.6428-0.81947 45.96-7.4068 56.719-8.8291 2.0625-0.27263 6.2812-0.9016 9.375-1.3976 3.0938-0.49603 8.5781-1.3658 12.188-1.9328 3.6094-0.567 9.0938-1.4516 12.188-1.9658 3.0938-0.51412 8.1562-1.31 11.25-1.7684 3.0938-0.45844 6.7379-1.1189 8.0981-1.4676 1.3602-0.34875 3.3083-0.18703 4.3291 0.35925 2.5633 1.3718 39.03 28.846 49.917 37.608 11.999 9.6564 19.974 15.756 26.719 20.436 6.8878 4.7792 14.139 10.362 25.662 19.758 8.9884 7.3289 14.185 11.255 23.936 18.085 10.754 7.5325 15.56 13.119 11.105 12.908-0.90234-0.043-3.1172-0.9578-4.9219-2.0334zm-495-54.168c0-1.0475 3.2328-7.4811 7.184-14.297 9.0296-15.576 20.941-36.982 20.941-37.634 0-0.2714 4.4842-9.6797 9.965-20.907 17.621-36.097 26.622-55.682 32.866-71.507 7.6332-19.346 18.115-46.292 22.794-58.594 1.9609-5.1562 4.6834-12.282 6.05-15.834 1.3666-3.5527 3.958-10.936 5.7586-16.406 3.7362-11.351 6.0148-16.198 7.3921-15.723 0.5255 0.18127 0.88623 1.5551 0.8016 3.0529-0.1405 2.4867-0.6365 4.7834-3.119 14.442-0.46385 1.8047-1.4485 5.8125-2.1881 8.9062-2.5482 10.659-15.367 58.827-18.462 69.375-1.0592 3.6094-2.389 8.25-2.955 10.312-0.56605 2.0625-1.7579 6.0703-2.6485 8.9062-0.89064 2.8359-2.5836 8.3203-3.7621 12.188-1.1785 3.8672-3.2811 10.617-4.6724 15-5.4176 17.066-8.241 26.057-10.304 32.812-4.1179 13.485-11.356 35.231-15.133 45.469-7.258 19.67-8.633 22.998-9.9557 24.096-0.73115 0.6069-3.51 1.4587-6.1753 1.893-4.951 0.807-9.6599 1.7331-17.971 3.5347-15.519 3.3642-16.406 3.4136-16.406 0.9155zm80.35-23.058c-1.3818-1.3818-0.52308-4.3972 3.9043-13.711 10.724-22.56 24.847-56.905 30.518-74.213 6.9075-21.083 19.689-61.726 22.138-70.394 0.43698-1.5469 1.7006-5.9766 2.808-9.8438s2.3735-8.2969 2.8134-9.8438c0.43998-1.5469 1.2218-4.2891 1.7374-6.0938 3.141-10.994 4.4307-15.991 5.5624-21.552 0.40924-2.0112 1.292-3.3918 2.292-3.5844 1.3829-0.26633 1.6264 0.45191 1.6264 4.7984 0 2.8114-0.84866 9.9087-1.8859 15.772-1.0372 5.8631-2.7316 15.934-3.7652 22.379-1.8176 11.334-4.1952 24.998-7.128 40.964-0.7762 4.2257-1.798 10.132-2.2706 13.125-0.47263 2.993-1.3206 7.5512-1.8843 10.129-0.56372 2.5781-1.3999 7.0078-1.8582 9.8438-0.80814 5.0012-1.8271 10.452-3.768 20.156-0.51563 2.5781-1.3594 6.7969-1.875 9.375-1.5499 7.7495-2.611 12.872-3.6899 17.812-0.56297 2.5781-1.3997 6.5859-1.8593 8.9062-0.45965 2.3203-1.3071 6.1172-1.8832 8.4375-1.9899 8.0144-2.9579 12.671-3.4461 16.576-0.26947 2.1559-1.188 4.5219-2.0413 5.2579-2.2788 1.9654-7.3882 3.4778-11.769 3.4838-2.1145 0-5.321 0.38672-7.1257 0.85303-4.718 1.2191-16.369 2.1477-17.15 1.3669zm321.89-30.531-22.883-22.551-9.4432 0.55294c-5.1938 0.30403-14.092 0.83306-19.774 1.1754-11.505 0.69346-11.383 0.74521-13.442-5.7161-0.65726-2.0625-1.559-4.5938-2.0038-5.625-1.9867-4.6056-12.664-36.377-14.965-44.531-0.65486-2.3203-1.5292-5.0625-1.9431-6.0938-0.41382-1.0312-1.027-2.9297-1.3627-4.2188-0.33566-1.2891-0.96647-3.6094-1.4018-5.1562-3.469-12.327-9.8922-37.95-12.221-48.75-1.5564-7.2188-3.2273-14.602-3.7133-16.406-0.48597-1.8047-1.0929-4.5469-1.3488-6.0938-0.25587-1.5469-0.92534-4.9219-1.4877-7.5-1.1579-5.308-2.3256-10.967-3.6758-17.812-0.50849-2.5781-1.3852-6.7969-1.9481-9.375-0.56297-2.5781-1.4067-6.5859-1.875-8.9062-0.46828-2.3203-1.236-6.1172-1.7061-8.4375-0.47006-2.3203-1.166-4.9535-1.5466-5.8515-0.81809-1.9305 1.8714-3.3729 3.7889-2.0321 5.6588 3.957 19.459 15.206 32.595 26.57 8.6831 7.5116 20.496 17.504 26.25 22.206 15.497 12.662 14.547 11.136 15.117 24.298 0.45321 10.482 1.4922 18.905 3.2914 26.685 0.41738 1.8047 1.473 6.4453 2.3457 10.312 2.6397 11.696 7.8609 27.381 15.448 46.406 1.645 4.125 11.598 24.424 22.117 45.109 21.616 42.504 21.399 42.029 19.81 43.347-0.83191 0.69037-7.3051-5.1317-24.022-21.605zm-165.43-1.0491c-0.21464-1.1285-0.8397-4.372-1.389-7.208-0.54935-2.8359-1.2377-6.8438-1.5297-8.9062-6.5286-46.117-9.3806-82.448-12.143-154.69-0.27601-7.2188-0.98059-17.789-1.5657-23.489-1.1011-10.726-0.48268-14.48 2.3857-14.48 1.3718 0 4.319 10.677 4.315 15.632-0.00094 1.6364 0.396 5.0114 0.88299 7.5s1.3286 7.8996 1.8702 12.025c2.9378 22.374 5.8837 43.112 7.1248 50.156 0.77225 4.3828 2.497 14.508 3.8328 22.5 3.079 18.422 3.7397 21.994 5.0293 27.188 0.57612 2.3203 1.4145 5.9062 1.863 7.9688 0.44853 2.0625 1.2454 5.2266 1.7709 7.0312 0.52544 1.8047 1.3538 4.7578 1.8407 6.5625 3.2264 11.957 11.581 33.96 17.5 46.087 3.1518 6.4577 2.0247 6.9051-19.448 7.7196-11.717 0.44457-11.957 0.41344-12.34-1.5983zm121.18-199.22c-4.4549-3.9699-10.994-9.8301-14.531-13.023-3.5373-3.1926-12.76-11.052-20.494-17.465-7.7344-6.4131-19.503-16.601-26.152-22.64-14.042-12.754-10.985-12.046-30.567-7.0786-1.8047 0.45776-4.9688 1.3103-7.0312 1.8945-3.8721 1.0967-7.5843 2.0589-14.062 3.6448-2.0625 0.50491-5.4375 1.396-7.5 1.9802-2.0625 0.58419-5.2266 1.4279-7.0312 1.875-1.8047 0.44706-4.9688 1.2908-7.0312 1.875-2.0625 0.58419-5.2266 1.4143-7.0312 1.8447-1.8047 0.43041-8.1328 2.1126-14.062 3.7382-5.9297 1.6256-12.469 3.3352-14.531 3.7991-3.5531 0.79911-15.252 3.7826-35.156 8.9653-9.0086 2.3457-17.991 4.5286-24.844 6.0371-2.0625 0.45406-5.6484 1.3048-7.9688 1.8907-2.3203 0.5858-5.8034 1.2862-7.7402 1.5565s-3.7547 0.86875-4.0397 1.3299c-0.28502 0.46115-1.7074 0.83847-3.1609 0.83847-2.4676 0-9.4342 2.3749-9.4342 3.2161 0 0.20816 0.85371 2.3701 1.8971 4.8043 1.98 4.6191 1.7454 7.9171-0.5631 7.9171-0.74369 0-4.4484-2.2898-8.2327-5.0884l-6.8805-5.0884-0.57281-6.8325c-0.62183-7.4171 0.54361-10.178 4.2961-10.178 1.0126 0 4.6386-0.90711 8.0578-2.0158 9.0373-2.9303 15.949-5.0696 20.748-6.4217 2.3203-0.65376 6.5391-1.9194 9.375-2.8125 2.8359-0.89312 7.0547-2.1538 9.375-2.8015 2.3203-0.64771 6.75-1.9558 9.8438-2.907 8.1721-2.5124 31.673-9.1834 39.844-11.31 10.268-2.6727 14.243-3.7379 16.875-4.5217 1.2891-0.38389 3.8203-1.1217 5.625-1.6395 9.9847-2.8651 11.798-3.4648 12.609-4.1705 0.48984-0.42597 1.7274-0.77449 2.7501-0.77449s4.2078-0.78522 7.0781-1.7449c2.8703-0.95971 8.3827-2.7057 12.25-3.8801 3.8672-1.1743 9.3516-2.8639 12.188-3.7545 2.8359-0.89064 7.0547-2.1542 9.375-2.808 2.3203-0.65376 6.5391-1.9194 9.375-2.8125 2.8359-0.89312 7.0246-2.1946 9.3081-2.8923l4.1519-1.2684 5.2231 6.029c2.8727 3.3159 9.8788 10.897 15.569 16.846 12.071 12.621 27.066 29.081 33.722 37.019 2.5723 3.0674 10.479 11.56 17.57 18.873 8.3267 8.5866 12.893 13.999 12.893 15.282 0 3.5386-3.0177 2.1262-11.381-5.3266zm-241.35-56.21c0.32788-1.9336 0.97205-6.0469 1.4315-9.1406 0.45945-3.0938 1.9486-11.953 3.3093-19.688 1.3607-7.7344 2.8226-16.172 3.2487-18.75 1.4745-8.9216 5.8502-36.586 6.6728-42.188 0.45433-3.0938 1.2799-8.5781 1.8346-12.188 0.55471-3.6094 1.3829-9.0938 1.8404-12.188 0.45751-3.0938 1.3026-8.7891 1.878-12.656 0.5754-3.8672 1.4616-10.195 1.9694-14.062 0.50778-3.8672 1.3243-9.9844 1.8144-13.594 1.5756-11.602 2.7446-20.453 3.6525-27.656 0.48748-3.8672 1.353-10.617 1.9235-15 2.303-17.695 4.5842-37.814 7.494-66.094 0.4775-4.6406 1.3247-12.867 1.8827-18.281 1.6472-15.983 4.1124-43.813 5.647-63.75 0.45643-5.9297 1.0826-13.945 1.3916-17.812 0.96416-12.068 4.6752-69.32 7.0796-109.22 0.49716-8.25 1.3095-18.164 1.8053-22.031 1.4655-11.432 1.2629-16.835-0.65694-17.516-5.0914-1.8056-6.6992-7.5488-2.8125-10.047 3.4338-2.2068 55.727-23.063 57.827-23.063 2.1534 0 2.8862 0.93165 16.496 20.974 5.142 7.5723 9.9011 14.559 10.576 15.526 0.81768 1.1721 0.90227 1.9592 0.25361 2.3601-0.5353 0.33083-5.6377-3.7422-11.339-9.0513-5.701-5.309-12.048-10.9-14.104-12.424l-3.7384-2.7712-5.8373 1.6622c-3.2105 0.91419-8.2729 2.3589-11.25 3.2105-4.1997 1.2014-5.2744 1.87-4.7965 2.9841 0.33871 0.78968 0.52348 14.884 0.41061 31.321l-0.20522 29.885-3.5728 3.7182c-2.234 2.325-4.224 3.5914-5.3108 3.3798-1.6581-0.32285-1.7281-1.8618-1.5221-33.466l0.21587-33.127-2.5596 0.60526c-7.352 1.7385-12.403 3.4907-12.403 4.3024 0 0.50123 0.47506 0.91132 1.0557 0.91132 0.77432 0 0.87926 7.9272 0.39374 29.742-0.36408 16.358-0.85354 30.052-1.0877 30.431-0.23416 0.37887-0.87289 9.8816-1.4194 21.117-2.1994 45.217-5.4683 98.443-9.2578 150.74-0.56042 7.7344-1.4366 20.18-1.9471 27.656-0.51047 7.4766-1.3296 18.656-1.8203 24.844-0.49071 6.1875-1.3243 16.945-1.8525 23.906-1.0878 14.337-2.321 29.743-3.7522 46.875-0.53844 6.4453-1.3491 16.57-1.8014 22.5-2.2728 29.793-5.5243 65.987-7.5797 84.375-0.54757 4.8984-1.3857 13.547-1.8625 19.219-1.573 18.712-2.9741 29.048-4.076 30.07-0.59763 0.55432-4.2507 1.9714-8.1178 3.1491-3.8672 1.1777-8.0003 2.5172-9.1847 2.9765-1.1844 0.45939-3.6564 0.83525-5.4932 0.83525h-3.3397l0.59612-3.5156zm47.948-10.454c-0.48051-0.77749 0.8641-21.944 3.2219-50.718 0.52815-6.4453 2.004-25.219 3.2796-41.719s2.7565-35.273 3.2909-41.719c0.53432-6.4453 1.3869-16.781 1.8947-22.969 0.50775-6.1875 1.3591-16.523 1.8918-22.969 0.53276-6.4453 1.3837-16.992 1.8909-23.438 1.7945-22.802 2.73-34.353 3.7202-45.938 0.55094-6.4453 1.3989-16.57 1.8844-22.5 0.92405-11.286 2.1123-25.594 3.6983-44.531 0.51821-6.1875 1.3834-16.734 1.9226-23.438 0.53922-6.7031 1.3934-17.039 1.8982-22.969 0.50479-5.9297 1.2258-16.127 1.6022-22.66 0.37642-6.5333 1.021-12.214 1.4325-12.623 0.41145-0.4094 1.4661-0.29357 2.3438 0.25744 1.2423 0.77996 1.744 3.0564 2.2656 10.279 0.36847 5.1026 1.1302 13.918 1.6928 19.59 1.1691 11.787 2.3218 23.607 3.7483 38.438 0.54556 5.6719 1.3907 14.109 1.8781 18.75 0.48739 4.6406 1.3027 12.867 1.8119 18.281 0.50914 5.4141 1.3583 13.852 1.887 18.75 0.52867 4.8984 1.3719 13.336 1.8739 18.75 0.50197 5.4141 1.3447 14.062 1.8728 19.219 0.52807 5.1562 1.3753 13.594 1.8827 18.75 0.50743 5.1562 1.3442 13.594 1.8595 18.75 0.51529 5.1562 1.3597 13.805 1.8764 19.219 0.51675 5.4141 1.3843 14.062 1.9279 19.219 1.2663 12.012 2.5194 24.615 3.6816 37.031 1.7383 18.57 2.7968 29.544 3.798 39.375 1.2674 12.445 2.4657 25.269 4.2488 45.469 0.77378 8.7656 1.6031 16.474 1.8429 17.131 0.66692 1.8249-2.9626 4.9006-5.783 4.9006-1.3814 0-3.8973 0.50109-5.591 1.1135-4.1423 1.4979-6.8974-0.80611-6.8974-5.7681 0-1.8845-0.82674-11.839-1.8372-22.12-1.0105-10.282-2.289-23.967-2.8411-30.413-1.5577-18.183-2.7761-31.488-3.8206-41.719-0.52643-5.1562-1.4004-15.281-1.9422-22.5-1.0425-13.891-2.1372-26.791-3.5801-42.188-2.226-23.752-2.9319-31.619-3.6595-40.781-0.77407-9.7478-1.5288-13.125-2.9331-13.125-0.39914 0-1.0009 4.1133-1.3372 9.1406-0.33631 5.0274-1.0257 13.992-1.5319 19.922-1.8762 21.976-2.8417 34.007-5.1155 63.75-1.2811 16.758-2.566 32.789-2.8552 35.625-0.80383 7.8812-2.2349 24.436-3.2822 37.969-0.51875 6.7031-1.3544 16.828-1.8571 22.5-0.50267 5.6719-1.3402 15.586-1.8612 22.031-1.6946 20.964-1.3982 20.083-7.4833 22.244-3.8837 1.3793-7.1846 1.5249-7.9114 0.34893zm142.11-22.827c-2.5977-3.2226-6.3946-7.753-8.4376-10.067l-3.7146-4.208-6.8823 2.4819c-3.7853 1.3651-9.2976 3.3641-12.25 4.4424-2.952 1.0782-6.4244 1.9605-7.7165 1.9605-2.6282 0-2.6266 0.005-4.1671-11.719-0.54202-4.125-1.5987-11.508-2.3482-16.406-3.1466-20.565-5.7664-42.145-8.1663-67.266-0.45566-4.7695-1.2578-12.785-1.7824-17.812-2.4915-23.873-4.8367-51.034-7.4673-86.484-0.5548-7.4766-1.4171-19.078-1.9163-25.781-0.49915-6.7031-1.3136-18.938-1.81-27.188-0.49633-8.25-1.3605-22.172-1.9203-30.938-0.55982-8.7656-1.4075-23.109-1.8837-31.875-2.2363-41.164-2.8022-51.918-3.6504-69.375-0.50112-10.312-1.158-21.492-1.4596-24.844-0.30167-3.3516-0.97544-18.961-1.4973-34.688-0.52181-15.727-1.1911-29.96-1.4873-31.63-0.41218-2.3238-0.16363-3.1799 1.0594-3.6493 1.1884-0.45605 4.5787 2.3605 13.23 10.991l11.63 11.61 0.0684 9.3891c0.0377 5.164 0.46468 11.709 0.94896 14.545 0.48429 2.8359 1.2981 11.273 1.8086 18.75 1.674 24.521 4.7748 58.149 7.4342 80.625 0.51859 4.3828 1.3585 11.766 1.8664 16.406 0.50795 4.6406 1.3926 12.023 1.9659 16.406 0.5733 4.3828 1.3994 10.922 1.8357 14.531 0.43632 3.6094 1.2617 9.9375 1.8341 14.062 0.57245 4.125 1.4457 10.875 1.9406 15 0.49488 4.125 1.5304 11.719 2.3012 16.875 0.7708 5.1562 2.0906 14.227 2.9329 20.156 0.84231 5.9297 2.0721 14.578 2.7328 19.219 0.66073 4.6406 2.0554 14.766 3.0992 22.5 2.7612 20.46 2.6633 19.788 5.803 39.844 0.44396 2.8359 1.2834 8.5312 1.8654 12.656 1.5271 10.823 3.0602 20.277 5.625 34.688 0.55063 3.0938 1.4188 8.1562 1.9292 11.25 2.8238 17.114 5.776 34.504 7.4807 44.062 0.45977 2.5781 1.3035 7.4297 1.875 10.781 0.57148 3.3516 1.4112 8.2031 1.8661 10.781 0.4549 2.5781 1.0686 6.1641 1.3637 7.9688 0.29514 1.8047 1.0037 5.452 1.5747 8.1051 1.1568 5.3757 0.49172 9.7074-1.4904 9.7074-0.71655 0-3.4282-2.6367-6.0258-5.8594zm-50.594-498.75c-1.0236-1.6758-4.2778-8.5274-7.2315-15.226-8.7779-19.906-14.326-31.416-15.14-31.405-0.42035 0.006-2.8736 0.66556-5.4518 1.4666-14.258 4.43-30.641 9.4396-42.656 13.043-26.525 7.9555-24.857 7.2562-24.737 10.373 0.0587 1.5196 0.43247 4.7669 0.83055 7.2161 1.1038 6.7914-1.3827 5.8396-5.5721-2.1327-3.682-7.0068-4.452-11.511-2.3064-13.493 1.4041-1.297 10.169-4.8551 31.316-12.713 7.2188-2.6823 17.344-6.4806 22.5-8.4407 26.427-10.046 28.604-10.722 29.997-9.3175 1.0717 1.0808 17.117 46.175 20.154 56.644 0.44885 1.5469 1.1047 3.7617 1.4575 4.9219 0.96181 3.1632-1.0136 2.5772-3.1605-0.9375zm-95.373-45.483c-0.54284-0.37882-2.006-2.3763-3.2514-4.4388s-4.1088-5.7328-6.363-8.1562-3.8573-4.7966-3.5624-5.2737c0.2949-0.47716 3.3914-2.5678 6.8812-4.6459 8.7275-5.197 28.147-19.692 33.668-25.129l4.5525-4.4841 0.6333-12.249c0.34832-6.737 1.1165-18.999 1.7071-27.249s1.3603-19.641 1.7104-25.312c0.50986-8.2587 0.91671-10.312 2.0429-10.312 1.6941 0 2.5086 4.5203 3.8006 21.094 0.50248 6.4453 1.3294 16.57 1.8376 22.5 0.50822 5.9297 1.176 14.691 1.4839 19.469 0.43488 6.7481 0.90583 8.8651 2.1095 9.4827 1.3858 0.7111 4.0697 1.0916 17.487 2.4791 8.9705 0.92767 16.619 2.7211 17.115 4.013 0.2865 0.74662-0.35551 4.1514-1.4267 7.5663-1.0712 3.4148-2.2285 8.0006-2.5718 10.191-0.70395 4.4905-3.345 8.3824-4.9959 7.3621-0.67836-0.41925-1.0893-3.461-1.0893-8.0626 0-4.0641-0.31641-7.5804-0.70313-7.814-0.38671-0.23355-7.7133-0.70809-16.281-1.0545l-15.578-0.62991-6.453 5.5087c-8.0317 6.8564-14.503 10.837-24.734 15.215l-7.9688 3.4101 0.32839 3.2289c0.18061 1.7759 0.65897 3.8617 1.063 4.6352 0.40404 0.77344 1.0316 3.1992 1.3946 5.3906 0.66348 4.0052-0.25731 5.0661-2.8355 3.2669z"/>
</svg>
